<svg xmlns="http://www.w3.org/2000/svg" viewBox="0 0 414.5 311.11"><defs><style>.cls-1{fill:#dbdd42;}.cls-2{fill:#efe23d;}.cls-3{fill:#777222;}.cls-4{fill:#777122;}.cls-5{font-size:22.08px;fill:#1d1d1b;font-family:Autumn;}</style></defs><g id="Layer_2" data-name="Layer 2"><g id="Layer_1-2" data-name="Layer 1"><circle cx="160.17" cy="35.56" r="35.56"/><path d="M197.11,53.36a90.26,90.26,0,0,1,29.58,14.42c20.08,14.81,48,41.43,55.14,48.33,4,3.85,11.37,10.92,20.87,20q-10.81,10-21.76,20.5-13.83,13.24-27,26.33l-24.11-31.27L204.5,121.44l-8-10.41-.75.25q1.92,9.52,3.83,19.05l2.22,15.11-4.77,21.45q-3.84,17.72-7.67,35.44l-4.11,4.23L180.72,208l-5.22-.44a11.14,11.14,0,0,1-3.44-2,11,11,0,0,1-3.12-4.56c-.18-1.22-.37-2.44-.55-3.67,1.13-7.64,2.49-15.58,4.11-23.77,2-10.24,4.28-19.95,6.67-29.12q-2.74-15.45-5.48-30.91-6.19,12.21-12.41,24.41l-3.42,4.34a24.08,24.08,0,0,1-9.83,1.58c-6.69-.29-16.15-1.14-22.34-1.5-4.73-.28-6.44-.21-12.89-.67-2.73-.19-5-.39-6.43-.52l-2.09-.31a12.14,12.14,0,0,1-2.67-1.42,12.31,12.31,0,0,1-3.08-3.08,9.29,9.29,0,0,1-2.5-6.25,10.93,10.93,0,0,1,2-5.5,17.21,17.21,0,0,1,2.83-3.58,12.46,12.46,0,0,1,5-2.17,11.9,11.9,0,0,1,3.16-.14c3.88.29,7.79,0,11.67.14,12.69.5,13.37.49,16.09.75,3.15.3,5.74.66,7.5.92l21.55-40.86Z"/><path d="M401.28,172.44l-47.89,6.45-11,1.55-20.33-21L309.17,146v-1.78l-1.45-2.11-2.89-3.33-2.13-2-47.84,46-.47,2.11v12.78l.55,18.77.12,18.78c0,1.3,0,2.59.05,3.89l.39,4.78.91,1.88,1.53,2.9q3.3,3.48,6.58,7l6.2,6.79,4.67,4.89h10.44l.11,11.67,6.67,7,4.11,3.44,4.22,1.23h2.78l3.45-.67,2.22-1.67,3.22-2.33,2.22-4c.11-1.22.23-2.44.34-3.67a14.78,14.78,0,0,0-1.23-7.44l-2.22-2.78-4.44-4.55-3.45-3.89c-1.33-1.48-2.66-3-4-4.45l-3.89-4-3.33-3.78-4-4.44-3.11-3.33-4.22-4.78c-.11-3-.22-5.93-.34-8.89q-.1-4.89-.22-9.78,0-8.28-.11-16.55a35.58,35.58,0,0,1,2.33-20.34q1.46-4.83,2.89-9.66l1.11-4.56.56-1.67,5,4.23,10.2,10,9.58,9.55,9.66,9.56,6.56,6.55,2.78,2.67,3.22,1,4.44.44,11.45-1.66,16.44-2.67,21.78-3,17.67-2.33,4.44-2.78,3-3.67.78-4.33v-5.33l-2.56-4.78-3.77-3.47-4.56-1.09Z"/><rect x="168.61" y="270.11" width="115.33" height="41"/><rect x="283.94" y="296.61" width="114.83" height="14.5"/><path class="cls-1" d="M244.74,235.15a125,125,0,0,1-.38,13.59,122.24,122.24,0,0,1-6.42-13.09c-1.45-3.48-2.66-6.82-3.66-10l9.83.09C244.42,228.7,244.64,231.84,244.74,235.15Z"/><path class="cls-1" d="M223,235.36a189.14,189.14,0,0,1,18.17,16.46c-6.51-2.83-13.42-6.16-20.59-10.08-5-2.75-9.73-5.54-14.1-8.31l5.73-6C215.74,229.8,219.35,232.44,223,235.36Z"/><path class="cls-1" d="M239.82,255.86q-6.09,1.54-12.71,2.92-8,1.65-15.41,2.76a13.25,13.25,0,0,1-1.26-4.89,12.57,12.57,0,0,1,.3-3.54,133.17,133.17,0,0,1,29.08,2.75Z"/><path class="cls-2" d="M14.5,161.44l2.67-.72H81.56l2.22.36,1.72,1.25,1.17,1.5L88,167.78l.22,2.44,3,24.95,1.28,11.55L96,235.78,99.56,267l1.11,8.17,1,9.33.33,2.67-.44.77-1,.73q-.25-3-.5-6.06c-.36-3.07-.71-6.15-1.06-9.22l-1.44-10.83c-.32-2.91-.63-5.82-1-8.73L95.44,244q-.85-7.86-1.72-15.72l-1.83-14.61-1.11-9.5q-.68-5.73-1.34-11.45-.82-6.66-1.66-13.33l-.84-8.61-.27-3.45-.28,2.45-.72,7.61c-.3,3.62-.59,7.23-.89,10.85-.33,2.76-.65,5.51-1,8.26q-.8,8.25-1.58,16.5l-.89,8.17-1,11.66-1.83,18.5-1.83,17.61q-.92,9.31-1.81,18.61a4.89,4.89,0,0,1-.58,1.28A4.64,4.64,0,0,1,73.22,290H62.39l-.83-1.33c.13-1.73.25-3.45.38-5.17-.31-1.37-.63-2.74-.94-4.11l-1.47-1-12.59-.26-20.44.15-9.94.07-1.84.17-1.66,1.33-1,1.78-.84,5.11v2.5l-.89.72H1.06L0,288.72v-.94l.83-9.34,1.39-13.5,1.11-12,1.06-10.5,3.78-38.05,2.22-22.56,1.55-16.16,1.89-3.45Z"/><path class="cls-3" d="M40.72,278.21l-.89,1.62-.22,1.06.42,3.28.41,2.72-.41,1-1.09.67H29.33l-1-.5-.56-1-.55-2.67q-.34-3-.67-6.07Z"/><path class="cls-4" d="M89.11,285.72a2.64,2.64,0,0,0,.22,1.56,2.76,2.76,0,0,0,1.34,1.28h3.11l6.78.11-3.17-27.78-1.61-13.22-1.33-12.78L90,197.33l-3.31-30-2.89,30.06L81.5,219.67l-2.9,30.61L77.4,261.9l-1.53,15.22h6.24l3.23.09,2.07,1.67,1.09,2.41.28,2.39Z"/><polygon class="cls-3" points="16.56 278.39 15.22 279.5 14.11 281 13.61 283.38 13.28 286.11 12.83 288.67 11.94 290 10.33 290 11.22 288.67 11.22 286.78 11.93 282.41 12.06 281.67 13.06 279.89 14.72 278.56 16.56 278.39"/><text class="cls-5" transform="matrix(0.95, 0, -0.31, 0.95, 26.62, 192.38)">TRIP</text><text class="cls-5" transform="matrix(0.95, 0, -0.31, 0.95, 10.88, 215.08)">HAZARD</text></g></g></svg>