<svg xmlns="http://www.w3.org/2000/svg" viewBox="0 0 95.67 95.67"><defs><style>.cls-1{fill:#3c3c3b;}.cls-1,.cls-2,.cls-3,.cls-4,.cls-5{stroke:#1d1d1b;stroke-miterlimit:10;}.cls-2{fill:#f4e72d;}.cls-3{fill:#e41919;}.cls-4{fill:#ef8f25;}.cls-5{fill:#c6bd0c;}</style></defs><g id="Layer_2" data-name="Layer 2"><g id="Layer_1-2" data-name="Layer 1"><circle class="cls-1" cx="47.84" cy="47.84" r="47.34"/><circle class="cls-2" cx="47.84" cy="47.84" r="44.06"/><path class="cls-3" d="M32.86,39.19l-10-23.67L44,31.69l5-15.17s6.33,16.17,6.5,15.5S73,17.36,73,17.36l-9.5,19.16,14.67-.33L69.36,48.36l12,8.66H66.53L79.7,73.19,61.2,65,57.53,82.36l-9-14.84L34.7,86.36s2.16-23.5,2.33-23-19.42,4.17-19.42,4.17l11.5-14.67-8.41-16Z"/><path class="cls-4" d="M38.43,42.19,31.78,26.45,45.86,37.2l3.32-10.08s4.21,10.75,4.32,10.3,11.64-9.75,11.64-9.75L58.82,40.42l9.76-.23L62.7,48.28l8,5.77H60.82L69.57,64.8l-12.3-5.43L54.83,70.89l-6-9.86-9.2,12.52s1.44-15.62,1.55-15.29S28.29,61,28.29,61l7.65-9.75-5.6-10.64Z"/><path class="cls-5" d="M42.75,45.24l-4-9.59,8.57,6.55,2-6.14s2.57,6.55,2.63,6.28,7.1-6,7.1-6l-3.85,7.77L61.12,44,57.54,49l4.86,3.51h-6L61.73,59l-7.5-3.31-1.49,7-3.64-6-5.61,7.63s.88-9.52.95-9.32-7.87,1.69-7.87,1.69l4.66-5.94L37.82,44.3Z"/></g></g></svg>